<?xml version="1.0" encoding="UTF-8" standalone="no"?>
<!-- Created with Inkscape (http://www.inkscape.org/) -->

<svg
   width="120mm"
   height="130.31354mm"
   viewBox="0 0 120 130.31354"
   version="1.1"
   id="svg838"
   inkscape:version="1.1.2 (0a00cf5339, 2022-02-04)"
   sodipodi:docname="regex_generator_logo2.svg"
   xmlns:inkscape="http://www.inkscape.org/namespaces/inkscape"
   xmlns:sodipodi="http://sodipodi.sourceforge.net/DTD/sodipodi-0.dtd"
   xmlns="http://www.w3.org/2000/svg"
   xmlns:svg="http://www.w3.org/2000/svg">
  <sodipodi:namedview
     id="namedview840"
     pagecolor="#505050"
     bordercolor="#eeeeee"
     borderopacity="1"
     inkscape:pageshadow="0"
     inkscape:pageopacity="0"
     inkscape:pagecheckerboard="0"
     inkscape:document-units="mm"
     showgrid="false"
     fit-margin-top="10"
     fit-margin-left="10"
     fit-margin-right="10"
     fit-margin-bottom="10"
     inkscape:zoom="0.64052329"
     inkscape:cx="221.69373"
     inkscape:cy="319.2702"
     inkscape:window-width="1920"
     inkscape:window-height="1044"
     inkscape:window-x="0"
     inkscape:window-y="0"
     inkscape:window-maximized="1"
     inkscape:current-layer="layer1" />
  <defs
     id="defs835" />
  <g
     inkscape:label="Camada 1"
     inkscape:groupmode="layer"
     id="layer1"
     transform="translate(-46.14422,-64.078151)">
    <g
       id="g1871"
       transform="matrix(0.6097271,0,0,0.6097271,40.771091,52.417038)"
       style="stroke-width:1.64008">
      <path
         id="path118"
         d="m 107.21701,35.525914 c -4.97939,0 -9.643442,1.339611 -13.664343,3.665966 l -0.003,-0.0057 -54.669236,31.564094 0.003,0.003 c -4.026122,2.319069 -7.519788,5.691343 -10.010162,10.004329 h 0.003 c -2.490002,4.313676 -3.664877,9.020912 -3.660038,13.667309 h -0.0031 V 157.55 h 0.003 c -0.0042,4.64565 1.170065,9.35507 3.660044,13.66731 2.489065,4.31207 5.979873,7.68233 10.004303,10.00134 v 0.003 l 54.669236,31.5641 0.003,-0.006 c 4.020901,2.32629 8.684956,3.66596 13.664336,3.66596 v 0.003 c 4.97911,0 9.64361,-1.33967 13.66435,-3.66597 l 0.003,0.003 54.15907,-31.27046 c 4.24147,-2.32342 7.92249,-5.80395 10.51742,-10.29796 h -0.003 c 2.49,-4.31367 3.66487,-9.02384 3.66004,-13.67023 h 0.003 V 94.421985 h -0.003 c 0.005,-4.645479 -1.17008,-9.352084 -3.66005,-13.664382 -2.48966,-4.313044 -5.9816,-7.68526 -10.00726,-10.004269 l 0.003,-0.003 -54.66924,-31.564151 -0.003,0.0057 c -4.021,-2.326301 -8.68505,-3.665912 -13.66444,-3.665912 z"
         style="fill:#5c005c;fill-opacity:1;stroke-width:0.433935" />
      <g
         aria-label="(.*)"
         id="text1865"
         style="font-size:55.568px;line-height:1.25;fill:#ffffff;stroke-width:0.396968"
         transform="matrix(1.5185899,0,0,1.5185899,10.027232,28.796103)">
        <path
           d="m 39.743296,41.182265 q -2.577617,5.453696 -3.85286,11.205852 -1.248109,5.725024 -1.248109,11.531445 0,5.833555 1.275242,11.558579 1.302375,5.725023 3.771461,11.232984 0.135664,0.325594 0.135664,0.542657 0.02713,0.244195 -0.162797,0.379859 -0.189929,0.162797 -0.596922,0.217062 -0.379859,0.0814 -1.058179,0.0814 -0.488391,0 -0.841117,-0.02713 -0.352727,-0.02713 -0.624055,-0.108531 -0.244195,-0.0814 -0.406992,-0.18993 -0.162797,-0.108531 -0.244196,-0.244195 -1.465172,-2.767547 -2.577617,-5.616492 -1.112445,-2.821813 -1.872164,-5.752157 -0.759719,-2.930344 -1.139578,-5.914953 -0.379859,-3.011742 -0.379859,-6.07775 0,-3.066008 0.406992,-6.050617 0.434125,-2.98461 1.193843,-5.914954 0.786852,-2.957476 1.899297,-5.806422 1.112446,-2.848945 2.496219,-5.643625 0.02713,-0.108531 0.135664,-0.189929 0.135664,-0.0814 0.352727,-0.162797 0.217062,-0.0814 0.596922,-0.108531 0.379859,-0.05427 0.976781,-0.05427 0.624055,0 1.003914,0.0814 0.379859,0.0814 0.596922,0.217063 0.217062,0.135664 0.244195,0.352726 0.02713,0.217063 -0.0814,0.461258 z"
           style="font-family:Calibri;-inkscape-font-specification:Calibri;stroke-width:0.396968"
           id="path8787" />
        <path
           d="m 53.092639,75.613805 q 0,1.92643 -0.651188,2.577617 -0.624054,0.624055 -2.306289,0.624055 -1.627969,0 -2.252023,-0.624055 -0.624055,-0.624055 -0.624055,-2.496219 0,-1.926429 0.624055,-2.550484 0.651187,-0.651188 2.333422,-0.651188 1.627968,0 2.252023,0.624055 0.624055,0.624055 0.624055,2.496219 z"
           style="font-family:Calibri;-inkscape-font-specification:Calibri;stroke-width:0.396968"
           id="path8789" />
        <path
           d="m 80.008389,53.202101 q 0.379859,0.162797 0.352727,0.651188 -0.02713,0.461258 -0.651188,1.519437 -0.624055,1.085313 -1.031047,1.329508 -0.379859,0.244196 -0.705453,0 l -5.779289,-4.205586 0.759719,7.108797 q 0.0814,0.406992 -0.352727,0.624055 -0.434125,0.217062 -1.682234,0.217062 -1.24811,0 -1.682235,-0.217062 -0.434125,-0.217063 -0.352726,-0.624055 l 0.759719,-7.108797 -5.752157,4.205586 q -0.325594,0.244196 -0.732586,0 -0.406992,-0.244195 -1.031047,-1.329508 -0.624054,-1.058179 -0.651187,-1.519437 0,-0.488391 0.379859,-0.651188 l 6.539008,-2.903211 -6.539008,-2.876078 q -0.379859,-0.189929 -0.379859,-0.651187 0.02713,-0.488391 0.651187,-1.546571 0.624055,-1.058179 1.031047,-1.302375 0.406992,-0.244195 0.732586,0 l 5.752157,4.178454 -0.759719,-7.081665 q -0.0814,-0.434125 0.352726,-0.651187 0.434125,-0.217063 1.682235,-0.217063 1.248109,0 1.682234,0.217063 0.434125,0.217062 0.352727,0.651187 l -0.759719,7.081665 5.779289,-4.178454 q 0.325594,-0.244195 0.705453,0 0.406992,0.244196 1.031047,1.329508 0.624055,1.031047 0.651188,1.519438 0.02713,0.461258 -0.352727,0.651187 l -6.539008,2.876078 z"
           style="font-family:Calibri;-inkscape-font-specification:Calibri;stroke-width:0.396968"
           id="path8791" />
        <path
           d="m 98.078842,64.000961 q 0,3.066008 -0.37986,6.07775 -0.379859,2.984609 -1.139578,5.914953 -0.759719,2.930344 -1.872164,5.752157 -1.085312,2.848945 -2.550484,5.616492 -0.0814,0.135664 -0.244196,0.244195 -0.162796,0.108531 -0.434125,0.18993 -0.244195,0.0814 -0.596921,0.108531 -0.352727,0.02713 -0.841118,0.02713 -0.705453,0 -1.112445,-0.0814 -0.379859,-0.05427 -0.569789,-0.217062 -0.162797,-0.135664 -0.162797,-0.379859 0.02713,-0.217063 0.162797,-0.542657 2.496219,-5.480828 3.771461,-11.205851 1.275242,-5.752157 1.275242,-11.585712 0,-5.806421 -1.275242,-11.531445 -1.275242,-5.752156 -3.825727,-11.205852 -0.108531,-0.244195 -0.0814,-0.461258 0.02713,-0.217062 0.244195,-0.352726 0.217063,-0.135664 0.596922,-0.217063 0.379859,-0.0814 1.003914,-0.0814 0.569789,0 0.949649,0.05427 0.379859,0.02713 0.596921,0.108531 0.244196,0.0814 0.352727,0.162797 0.108531,0.0814 0.162797,0.189929 2.79468,5.562227 4.368383,11.450047 1.600836,5.860688 1.600836,11.965571 z"
           style="font-family:Calibri;-inkscape-font-specification:Calibri;stroke-width:0.396968"
           id="path8793" />
      </g>
    </g>
  </g>
</svg>
